<mxfile host="app.diagrams.net" modified="2023-06-07T06:26:32.314Z" agent="Mozilla/5.0 (Windows NT 10.0; Win64; x64; rv:109.0) Gecko/20100101 Firefox/113.0" etag="ftdS4-U5NrCOnwPB-w-D" version="21.2.9" type="device">
  <diagram id="C5RBs43oDa-KdzZeNtuy" name="Page-1">
    <mxGraphModel dx="1434" dy="782" grid="1" gridSize="10" guides="1" tooltips="1" connect="1" arrows="1" fold="1" page="1" pageScale="1" pageWidth="827" pageHeight="1169" math="0" shadow="0">
      <root>
        <mxCell id="WIyWlLk6GJQsqaUBKTNV-0" />
        <mxCell id="WIyWlLk6GJQsqaUBKTNV-1" parent="WIyWlLk6GJQsqaUBKTNV-0" />
        <mxCell id="PLHv8NK2Ga_DfnxX1Gzn-0" style="edgeStyle=orthogonalEdgeStyle;rounded=0;orthogonalLoop=1;jettySize=auto;html=1;exitX=0.5;exitY=1;exitDx=0;exitDy=0;" edge="1" parent="WIyWlLk6GJQsqaUBKTNV-1" source="WIyWlLk6GJQsqaUBKTNV-3" target="PLHv8NK2Ga_DfnxX1Gzn-1">
          <mxGeometry relative="1" as="geometry">
            <mxPoint x="220" y="170" as="targetPoint" />
          </mxGeometry>
        </mxCell>
        <mxCell id="WIyWlLk6GJQsqaUBKTNV-3" value="SecondArrayWithif" style="rounded=1;whiteSpace=wrap;html=1;fontSize=12;glass=0;strokeWidth=1;shadow=0;" parent="WIyWlLk6GJQsqaUBKTNV-1" vertex="1">
          <mxGeometry x="160" y="80" width="120" height="40" as="geometry" />
        </mxCell>
        <mxCell id="PLHv8NK2Ga_DfnxX1Gzn-2" style="edgeStyle=orthogonalEdgeStyle;rounded=0;orthogonalLoop=1;jettySize=auto;html=1;exitX=0.5;exitY=1;exitDx=0;exitDy=0;" edge="1" parent="WIyWlLk6GJQsqaUBKTNV-1" source="PLHv8NK2Ga_DfnxX1Gzn-1" target="PLHv8NK2Ga_DfnxX1Gzn-3">
          <mxGeometry relative="1" as="geometry">
            <mxPoint x="220" y="290" as="targetPoint" />
          </mxGeometry>
        </mxCell>
        <mxCell id="PLHv8NK2Ga_DfnxX1Gzn-1" value="&lt;div&gt;string[] array1&lt;/div&gt;&lt;div&gt;string[] array2&lt;/div&gt;&lt;div&gt;int count = 0&lt;br&gt;&lt;/div&gt;" style="shape=parallelogram;perimeter=parallelogramPerimeter;whiteSpace=wrap;html=1;fixedSize=1;" vertex="1" parent="WIyWlLk6GJQsqaUBKTNV-1">
          <mxGeometry x="160" y="170" width="120" height="60" as="geometry" />
        </mxCell>
        <mxCell id="PLHv8NK2Ga_DfnxX1Gzn-4" style="edgeStyle=orthogonalEdgeStyle;rounded=0;orthogonalLoop=1;jettySize=auto;html=1;exitX=0.5;exitY=1;exitDx=0;exitDy=0;" edge="1" parent="WIyWlLk6GJQsqaUBKTNV-1" source="PLHv8NK2Ga_DfnxX1Gzn-3" target="PLHv8NK2Ga_DfnxX1Gzn-5">
          <mxGeometry relative="1" as="geometry">
            <mxPoint x="220" y="390" as="targetPoint" />
          </mxGeometry>
        </mxCell>
        <mxCell id="PLHv8NK2Ga_DfnxX1Gzn-3" value="&lt;div&gt;for (int i = 0;&lt;/div&gt;&lt;div&gt;i &amp;lt; array.Lenght;&lt;/div&gt;&lt;div&gt;i++;&lt;br&gt;&lt;/div&gt;" style="shape=hexagon;perimeter=hexagonPerimeter2;whiteSpace=wrap;html=1;fixedSize=1;" vertex="1" parent="WIyWlLk6GJQsqaUBKTNV-1">
          <mxGeometry x="160" y="250" width="120" height="80" as="geometry" />
        </mxCell>
        <mxCell id="PLHv8NK2Ga_DfnxX1Gzn-6" style="edgeStyle=orthogonalEdgeStyle;rounded=0;orthogonalLoop=1;jettySize=auto;html=1;exitX=1;exitY=0.5;exitDx=0;exitDy=0;" edge="1" parent="WIyWlLk6GJQsqaUBKTNV-1" source="PLHv8NK2Ga_DfnxX1Gzn-5" target="PLHv8NK2Ga_DfnxX1Gzn-7">
          <mxGeometry relative="1" as="geometry">
            <mxPoint x="640" y="340" as="targetPoint" />
          </mxGeometry>
        </mxCell>
        <mxCell id="PLHv8NK2Ga_DfnxX1Gzn-11" style="edgeStyle=orthogonalEdgeStyle;rounded=0;orthogonalLoop=1;jettySize=auto;html=1;exitX=1;exitY=0.5;exitDx=0;exitDy=0;entryX=1;entryY=0.75;entryDx=0;entryDy=0;" edge="1" parent="WIyWlLk6GJQsqaUBKTNV-1" source="PLHv8NK2Ga_DfnxX1Gzn-5" target="PLHv8NK2Ga_DfnxX1Gzn-3">
          <mxGeometry relative="1" as="geometry">
            <Array as="points">
              <mxPoint x="335" y="455" />
              <mxPoint x="335" y="310" />
              <mxPoint x="271" y="310" />
            </Array>
          </mxGeometry>
        </mxCell>
        <mxCell id="PLHv8NK2Ga_DfnxX1Gzn-5" value="if (array1[i].lenght &amp;lt;= 3" style="rhombus;whiteSpace=wrap;html=1;" vertex="1" parent="WIyWlLk6GJQsqaUBKTNV-1">
          <mxGeometry x="122.5" y="420" width="195" height="70" as="geometry" />
        </mxCell>
        <mxCell id="PLHv8NK2Ga_DfnxX1Gzn-9" style="edgeStyle=orthogonalEdgeStyle;rounded=0;orthogonalLoop=1;jettySize=auto;html=1;" edge="1" parent="WIyWlLk6GJQsqaUBKTNV-1" source="PLHv8NK2Ga_DfnxX1Gzn-7" target="PLHv8NK2Ga_DfnxX1Gzn-3">
          <mxGeometry relative="1" as="geometry" />
        </mxCell>
        <mxCell id="PLHv8NK2Ga_DfnxX1Gzn-7" value="&lt;div&gt;array2[count] = array[i]&lt;/div&gt;&lt;div&gt;count++;&lt;br&gt;&lt;/div&gt;" style="rounded=0;whiteSpace=wrap;html=1;" vertex="1" parent="WIyWlLk6GJQsqaUBKTNV-1">
          <mxGeometry x="450" y="260" width="140" height="60" as="geometry" />
        </mxCell>
        <mxCell id="PLHv8NK2Ga_DfnxX1Gzn-8" value="&lt;div&gt;Yes&lt;/div&gt;" style="text;html=1;strokeColor=none;fillColor=none;align=center;verticalAlign=middle;whiteSpace=wrap;rounded=0;" vertex="1" parent="WIyWlLk6GJQsqaUBKTNV-1">
          <mxGeometry x="420" y="430" width="60" height="30" as="geometry" />
        </mxCell>
        <mxCell id="PLHv8NK2Ga_DfnxX1Gzn-12" value="&lt;div&gt;No&lt;/div&gt;" style="text;html=1;strokeColor=none;fillColor=none;align=center;verticalAlign=middle;whiteSpace=wrap;rounded=0;" vertex="1" parent="WIyWlLk6GJQsqaUBKTNV-1">
          <mxGeometry x="290" y="350" width="60" height="30" as="geometry" />
        </mxCell>
      </root>
    </mxGraphModel>
  </diagram>
</mxfile>
